PathFileType	4	(X/Y/Z)	subject01_walk1.trc																																																																																																																									
DataRate	CameraRate	NumFrames	NumMarkers	Units	OrigDataRate	OrigDataStartFrame	OrigNumFrames																																																																																																																					
60	60	9	41	mm	60	114	151																																																																																																																					
Frame#	Time	R.ASIS			L.ASIS			V.Sacral			R.Thigh.Upper			R.Thigh.Front			R.Thigh.Rear			L.Thigh.Upper			L.Thigh.Front			L.Thigh.Rear			R.Shank.Upper			R.Shank.Front			R.Shank.Rear			L.Shank.Upper			L.Shank.Front			L.Shank.Rear			R.Heel			R.Midfoot.Sup			R.Midfoot.Lat			R.Toe.Tip			L.Heel			L.Midfoot.Sup			L.Midfoot.Lat			L.Toe.Tip			Sternum			R.Acromium			L.Acromium			R.Bicep			L.Bicep			R.Elbow			L.Elbow			R.Wrist.Med			R.Wrist.Lat			L.Wrist.Med			L.Wrist.Lat			R.Toe.Lat			R.Toe.Med			L.Toe.Lat			L.Toe.Med			R.Temple			L.Temple			Top.Head		
		X1	Y1	Z1	X2	Y2	Z2	X3	Y3	Z3	X4	Y4	Z4	X5	Y5	Z5	X6	Y6	Z6	X7	Y7	Z7	X8	Y8	Z8	X9	Y9	Z9	X10	Y10	Z10	X11	Y11	Z11	X12	Y12	Z12	X13	Y13	Z13	X14	Y14	Z14	X15	Y15	Z15	X16	Y16	Z16	X17	Y17	Z17	X18	Y18	Z18	X19	Y19	Z19	X20	Y20	Z20	X21	Y21	Z21	X22	Y22	Z22	X23	Y23	Z23	X24	Y24	Z24	X25	Y25	Z25	X26	Y26	Z26	X27	Y27	Z27	X28	Y28	Z28	X29	Y29	Z29	X30	Y30	Z30	X31	Y31	Z31	X32	Y32	Z32	X33	Y33	Z33	X34	Y34	Z34	X35	Y35	Z35	X36	Y36	Z36	X37	Y37	Z37	X38	Y38	Z38	X39	Y39	Z39	X40	Y40	Z40	X41	Y41	Z41
																																																																																																																												
114	1.883	605.46362	1043.40942	128.03398	604.87549	1029.39063	-133.10277	408.27969	1035.89111	15.22023	651.401	747.77	180.073	737.897	718.941	91.5277	693.449	633.894	171.156	475.605	723.452	-174.903	544.119	660.43	-104.748	434.467	623.172	-154.69	703.90619	445.30484	159.52756	791.2135	437.42966	107.65226	745.83215	368.36661	168.97842	341.50589	445.69504	-150.9426	369.88034	381.26318	-99.33047	305.60541	413.87216	-156.2533	783.67078	58.0193	91.66958	916.409	112.62802	64.13941	911.77692	92.88168	169.9321	1057.62158	135.02078	109.32391	111.92958	113.09392	-53.7847	279.15509	82.83987	-25.14753	259.80771	67.26584	-119.50059	376.83801	43.98156	-46.92442	634.33344	1345.82202	4.67197	514.72699	1430.1145	206.81691	582.54346	1460.9043	-205.11908	493.72333	1232.73755	248.56581	626.80725	1227.80884	-234.07695	433.47784	1136.05554	268.79041	597.7337	1124.22583	-278.04132	553.18695	894.1781	277.40381	505.63239	882.77429	320.15012	777.94336	968.10504	-188.33229	752.50543	932.25342	-249.66479	999.93457	96.46526	186.51971	1008.21124	112.45219	77.8669	312.67218	36.90543	-124.69489	334.40024	46.59768	-24.33904	683.3692	1587.45752	94.19202	700.82434	1595.91333	-43.10887	652.65912	1762.27173	34.20727
115	1.9	610.03516	1042.57324	129.6434	607.80206	1028.72498	-130.71559	412.04169	1034.99036	18.41548	656.705	748.646	181.649	743.02	720.697	92.6465	699.61	635.126	172.287	478.015	723.196	-172.873	546.153	659.863	-102.632	436.574	622.972	-153.003	709.48065	446.07312	157.89854	792.59503	434.63446	105.64602	747.85876	368.69659	165.99821	341.2023	447.3829	-151.01653	366.51389	380.44019	-100.62478	304.46347	416.26398	-156.821	769.0202	59.63794	90.26121	904.56079	103.87423	61.80857	899.11707	85.7089	167.55299	1047.26318	117.3814	105.99777	99.00433	123.33566	-55.32401	264.05856	84.80372	-26.07131	244.74504	68.46319	-121.17912	357.31729	43.71735	-46.88848	635.82886	1345.73108	8.38497	517.08752	1428.33545	211.60574	583.38544	1461.82324	-200.79243	495.75867	1230.26929	252.0528	624.81714	1228.25256	-230.31384	437.08359	1133.56262	271.44321	597.56708	1125.28552	-274.60184	558.83423	892.37671	279.34903	510.44702	880.62952	322.22226	772.43353	960.94531	-188.3524	745.40802	927.11359	-251.04771	989.34619	82.77299	183.89014	995.90729	96.99548	75.46587	293.27945	36.3718	-124.43866	317.03229	45.64081	-24.28938	683.20856	1587.86633	98.55325	700.0462	1596.53613	-39.51795	651.49518	1762.11389	37.42684
116	1.917	614.10919	1043.69116	131.51495	610.23468	1029.25427	-128.87679	416.04474	1034.90125	21.62554	662.584	750.46	183.341	748.723	723.299	93.9247	706.351	637.297	173.659	482.115	723.483	-170.829	550.249	660.28	-100.468	440.971	623.077	-151.262	714.33075	448.2684	157.69023	798.39539	434.54434	103.10608	750.01886	369.45218	165.6133	343.65616	448.1582	-152.1212	365.72482	380.10397	-101.05268	306.2395	418.65588	-157.62846	753.64746	61.59105	89.84592	891.25073	96.26766	60.28879	885.38696	79.53697	166.13715	1035.27197	101.56565	103.73302	88.24869	135.88103	-57.14662	250.11806	87.50636	-26.95028	230.74353	70.35272	-122.70255	338.45444	43.57499	-46.61061	638.79907	1346.79382	12.91889	518.5838	1427.62512	216.26419	584.28265	1462.69543	-195.54349	499.54181	1228.50659	255.5807	626.47894	1229.45251	-226.17705	441.44916	1131.68066	274.36978	595.52081	1126.21912	-270.2402	564.42987	892.09479	281.61832	515.03906	878.8385	324.18088	765.33325	953.91351	-190.034	736.77118	923.04688	-252.84044	974.80573	71.62594	182.68623	982.24011	83.68626	73.79651	274.24039	36.02512	-123.96406	300.0694	44.81377	-23.99322	686.03699	1589.60486	102.7803	701.4173	1598.13379	-35.26448	651.55127	1763.63818	42.67004
117	1.933	618.85406	1045.24451	133.42432	614.79852	1030.28369	-127.17284	420.03702	1035.44507	24.69092	668.711	752.475	184.842	754.427	725.668	94.9136	712.967	639.519	174.968	488.83	724.069	-168.931	557.467	661.517	-98.4765	448.717	623.206	-149.579	717.6156	452.19604	159.48283	799.47015	433.91107	103.21162	751.88885	371.5502	166.68858	349.99713	448.59744	-152.04234	370.00681	379.38666	-102.71784	311.54086	420.91336	-158.89931	737.60876	63.63334	90.24367	876.84064	90.29555	59.51012	870.69775	74.6232	165.68996	1021.76001	88.15521	102.50016	80.4095	151.09715	-59.19344	237.54228	91.23063	-27.91864	217.48769	73.33043	-123.74162	320.69971	43.40281	-46.11485	640.71368	1348.33057	16.35009	521.60889	1427.44507	221.313	584.96466	1465.12561	-191.56561	503.68854	1227.90454	259.41183	626.3363	1230.59033	-222.32713	446.59311	1130.36694	277.51611	594.85791	1128.5061	-266.61594	570.0946	889.9649	283.19418	521.40417	877.5882	325.30499	757.25781	947.8205	-191.40245	727.22327	919.37219	-254.47643	958.01501	63.02232	183.18765	967.38953	73.01529	72.70856	256.11023	36.25825	-123.43676	283.69724	44.57438	-23.64153	686.87189	1591.79663	106.96089	701.27264	1600.91968	-31.27731	650.45923	1765.53455	46.97148
118	1.95	623.43579	1048.28186	135.05672	617.37366	1031.07617	-124.91547	423.81763	1036.31909	27.57822	674.167	754.427	186.531	759.177	727.45	95.9856	718.237	641.418	176.433	497.681	724.585	-166.741	567.796	663.552	-96.4107	459.985	622.758	-147.581	719.69702	454.11093	161.75368	799.12878	432.40567	102.54192	749.88275	372.44794	169.44662	360.19919	448.92685	-153.8002	376.18771	378.23944	-104.63625	320.76154	422.95343	-160.68825	720.86957	65.55462	91.19658	861.53357	85.98248	59.30066	855.10303	70.88926	165.98387	1006.82343	77.07091	102.0894	76.37951	169.24365	-61.29384	226.75539	96.27394	-28.98059	205.24356	78.17268	-124.34325	304.32254	42.9777	-45.58478	643.396	1351.15955	20.89548	524.7619	1428.65771	225.74323	586.26642	1467.56384	-186.61748	509.14377	1228.39185	263.06662	626.96863	1233.36475	-218.8688	452.42667	1129.54138	280.82703	592.75812	1131.44873	-262.40857	577.40521	889.81964	284.52878	527.49695	876.53882	327.43948	747.35852	940.64825	-193.28389	715.50922	916.01733	-256.52365	944.14551	56.0677	182.00859	951.54834	64.77813	72.05917	239.41238	37.56248	-123.15693	268.13232	45.3821	-23.48193	688.01776	1594.58215	110.79537	701.61163	1603.4386	-26.92887	650.70459	1767.74304	51.08053
119	1.967	627.18011	1049.81946	137.78352	618.578	1032.84863	-122.78753	427.17181	1037.28198	30.31125	677.441	755.377	188.1	761.889	728.075	97.1269	721.087	642.219	177.832	507.825	725.485	-165.076	580.716	667.038	-95.3719	474.307	622.178	-146.071	719.62726	454.8927	165.3322	794.87103	430.22656	104.46397	747.71155	372.52618	171.23349	376.24704	448.21841	-158.61909	387.43033	377.15634	-107.08619	333.96869	424.82434	-162.8015	703.51117	67.15761	92.36251	845.45435	83.0708	59.44811	838.65564	68.1961	166.66072	990.61426	68.11213	102.23546	77.09361	190.28645	-63.23508	218.40373	102.88161	-30.03874	194.92796	85.60066	-124.74249	289.3504	42.01232	-45.32342	646.14935	1353.66565	25.12616	527.487	1429.47266	230.46445	586.50128	1471.37024	-183.16075	512.61566	1228.95068	266.65976	626.36475	1235.40173	-215.17815	458.84827	1129.12634	284.27206	590.60162	1134.62378	-259.10477	583.9964	890.38342	287.45071	535.42145	876.5766	329.63171	738.39044	936.44476	-194.57646	703.85138	914.29468	-258.97107	926.72101	48.36149	181.24631	934.91626	58.58838	71.79319	224.59215	40.35686	-123.41716	253.69571	47.60042	-23.72638	689.45996	1597.54919	114.92419	702.45752	1605.35498	-23.63593	650.26843	1769.69934	55.36303
120	1.983	630.8598	1052.15906	140.21741	620.58966	1034.20886	-120.05701	429.88419	1038.28149	32.88036	679.244	755.888	190.236	763.113	727.924	98.9291	721.839	642.354	179.698	519.382	726.52	-163.678	595.943	671.149	-95.4124	491.159	621.568	-145.09	717.37585	455.9472	169.55743	790.20764	429.05322	105.42946	742.84283	371.88913	173.72887	395.58435	447.84161	-162.50772	401.14877	376.36804	-108.60883	350.85596	426.71719	-164.82388	685.68005	68.30288	93.34912	828.69885	81.20644	59.75861	821.39539	66.45425	167.36812	973.3432	61.22469	102.64778	83.38509	213.68155	-64.76842	213.20454	111.10818	-31.00884	187.86713	95.84299	-125.16647	275.89819	40.31657	-45.59236	648.37408	1355.81226	28.20765	530.51105	1431.75647	234.60294	588.05542	1473.4856	-178.47714	519.31512	1229.86133	270.5661	625.51831	1237.9082	-211.2561	465.78854	1129.09949	287.82507	586.63757	1138.28369	-255.45131	590.6405	890.5766	288.96353	544.30212	877.16296	332.03156	727.21057	931.48975	-197.46213	690.8653	913.20123	-260.79855	909.69061	43.92204	182.37421	917.62054	54.14445	71.85696	212.26855	44.93751	-124.32916	241.1252	51.50104	-24.49562	689.95789	1600.09045	118.91792	702.53485	1608.34021	-19.37939	650.13049	1772.25562	58.62554
121	2	633.1275	1053.85156	142.46182	622.57764	1036.09583	-117.23618	431.79849	1039.46802	35.25974	679.269	755.926	192.406	762.637	727.235	100.866	720.577	641.95	181.531	531.152	728.261	-163.172	611.979	676.467	-97.0507	509.151	621.7	-145.35	711.48114	456.2265	170.8961	784.20898	427.17487	106.15002	735.04187	371.73203	175.44513	416.83133	447.43283	-162.73349	419.00317	375.95242	-109.61196	370.84998	428.90479	-166.34431	667.50031	68.9679	93.87676	811.35193	80.05795	60.09552	803.41455	65.49837	167.87764	955.28369	56.3883	103.05069	95.62897	238.23917	-65.63486	211.85968	120.76781	-31.93066	185.39088	108.51147	-125.82595	264.59531	38.18796	-46.53951	649.56403	1358.63123	30.85243	532.64459	1433.7196	238.47353	588.36877	1477.14172	-174.78053	525.51501	1230.92944	274.40363	623.07312	1240.24304	-207.75536	473.16147	1129.49243	291.45227	585.19617	1141.021	-250.97449	600.46338	891.54181	291.22153	552.43762	878.16797	334.29517	716.43481	927.96777	-200.27705	677.66016	912.48309	-263.30954	890.71973	42.38278	182.13039	899.7373	51.19696	72.09827	203.52182	51.56227	-125.75976	231.9019	57.30818	-25.79413	689.92975	1602.64087	121.9509	702.07916	1611.33252	-16.33253	649.44159	1774.45435	62.38029
122	2.017	633.6604	1055.71692	145.64249	623.99475	1037.28491	-114.67017	432.88391	1041.07007	37.48057	676.703	755.693	195.262	759.507	726.023	103.523	716.16	641.11	183.898	542.416	730.539	-162.993	627.746	682.67	-99.6285	527.256	622.58	-146.498	701.18707	455.63614	172.0753	774.06403	425.80444	109.35875	722.68384	371.15842	176.1842	440.23129	446.53555	-163.24051	438.37225	376.2388	-110.13622	393.26855	431.68839	-167.18848	649.07129	69.24074	93.92106	793.4845	79.36191	60.39083	784.90137	65.0349	168.13156	936.74701	53.39363	103.30369	113.20316	262.20203	-65.61364	215.07895	131.47739	-32.92825	188.27518	122.70277	-126.79395	256.73816	36.65646	-48.2448	650.15216	1361.35205	33.69872	536.26825	1435.6875	242.42711	587.72296	1479.78467	-171.69768	530.67926	1232.5127	277.48917	620.7887	1242.99316	-204.52055	480.8252	1130.36426	295.09619	581.55914	1144.31409	-247.32681	610.28217	894.11749	293.45361	563.18231	879.45874	336.59857	706.01141	924.61908	-202.44142	664.60229	912.42224	-265.09293	872.51294	41.92026	183.01682	881.3302	49.41844	72.32568	199.80693	60.3786	-127.46479	228.04898	65.09621	-27.57002	690.78064	1605.08215	124.55373	702.25519	1614.22644	-13.61353	649.70074	1777.37268	65.86707
